<svg xmlns="http://www.w3.org/2000/svg" width="128dp" height="136dp" viewportWidth="128"
    viewportHeight="136" viewBox="0 0 128 136">
	<path d="M0,124a64,12 0,1 0,128 0a64,12 0,1 0,-128 0z" fill="#C2D3FF" />
	<path d="M98.347,18.361C89.243,5.837 76.007,0 62.175,0C62.175,0 28.35,0 18.333,30.282C14.634,41.442 15.456,53.559 19.936,64.427C21.618,68.559 23.737,72.499 26.258,76.179C35.009,88.798 62.204,123.248 62.204,123.248H68.115C75.703,112.709 94.804,77.7 100.526,66.474C107.699,52.388 108.8,32.74 98.347,18.361ZM67.835,74.375C62.12,74.375 56.533,72.68 51.781,69.505C47.029,66.329 43.325,61.816 41.138,56.535C38.951,51.255 38.379,45.445 39.494,39.839C40.61,34.234 43.362,29.085 47.404,25.044C51.445,21.003 56.595,18.251 62.2,17.136C67.806,16.022 73.616,16.595 78.896,18.782C84.176,20.97 88.689,24.674 91.864,29.427C95.039,34.18 96.733,39.767 96.732,45.482C96.731,53.145 93.686,60.494 88.267,65.913C82.848,71.331 75.498,74.375 67.835,74.375Z" fill="#40507A" />
	<path d="M104.295,18.596C95.19,6.075 81.955,0.238 68.123,0.238C68.123,0.238 34.298,0.238 24.281,30.52C20.581,41.68 21.403,53.798 25.888,64.666C27.568,68.798 29.686,72.737 32.206,76.418C40.957,89.033 68.14,123.499 68.14,123.499C68.14,123.499 99.548,80.294 106.461,66.729C113.646,52.618 114.752,32.978 104.295,18.596ZM67.872,74.613C62.157,74.613 56.57,72.918 51.818,69.743C47.066,66.568 43.362,62.055 41.175,56.775C38.988,51.494 38.416,45.684 39.531,40.079C40.646,34.474 43.398,29.325 47.439,25.284C51.481,21.242 56.63,18.49 62.235,17.375C67.84,16.26 73.65,16.832 78.93,19.02C84.211,21.207 88.724,24.91 91.899,29.662C95.074,34.414 96.769,40.001 96.769,45.716C96.797,49.519 96.069,53.29 94.627,56.808C93.185,60.327 91.058,63.524 88.369,66.213C85.68,68.902 82.483,71.029 78.964,72.471C75.445,73.913 71.675,74.642 67.872,74.613Z" fill="#477BFF" />
	<path d="M67.835,16.586C61.864,16.586 56.039,18.436 51.162,21.881C46.285,25.327 42.595,30.198 40.599,35.827C42.829,30.899 46.611,26.837 51.366,24.262C56.122,21.687 61.59,20.74 66.935,21.566C72.28,22.391 77.208,24.945 80.965,28.835C84.721,32.726 87.101,37.74 87.739,43.11C88.378,48.481 87.24,53.912 84.5,58.575C81.76,63.238 77.568,66.876 72.566,68.932C67.564,70.987 62.026,71.349 56.799,69.96C51.572,68.571 46.943,65.509 43.62,61.242C46.352,65.437 50.126,68.851 54.574,71.148C59.022,73.446 63.99,74.548 68.992,74.347C73.994,74.147 78.859,72.65 83.108,70.003C87.357,67.357 90.846,63.651 93.232,59.251C95.619,54.85 96.821,49.904 96.72,44.899C96.62,39.894 95.221,35.001 92.66,30.699C90.1,26.398 86.465,22.835 82.114,20.361C77.761,17.887 72.841,16.586 67.835,16.586Z" fill="#40507A" />
	<path d="M67.835,16.586C61.864,16.586 56.039,18.436 51.162,21.881C46.285,25.327 42.595,30.198 40.599,35.827C42.829,30.899 46.611,26.837 51.366,24.262C56.122,21.687 61.59,20.74 66.935,21.566C72.28,22.391 77.208,24.945 80.965,28.835C84.721,32.726 87.101,37.74 87.739,43.11C88.378,48.481 87.24,53.912 84.5,58.575C81.76,63.238 77.568,66.876 72.566,68.932C67.564,70.987 62.026,71.349 56.799,69.96C51.572,68.571 46.943,65.509 43.62,61.242C46.352,65.437 50.126,68.851 54.574,71.148C59.022,73.446 63.99,74.548 68.992,74.347C73.994,74.147 78.859,72.65 83.108,70.003C87.357,67.357 90.846,63.651 93.232,59.251C95.619,54.85 96.821,49.904 96.72,44.899C96.62,39.894 95.221,35.001 92.66,30.699C90.1,26.398 86.465,22.835 82.114,20.361C77.761,17.887 72.841,16.586 67.835,16.586Z" strokeAlpha="0.4" fill="#000000" fillAlpha="0.4" />
</svg>