<svg xmlns="http://www.w3.org/2000/svg" xmlns:android="http://schemas.android.com/apk/res/android" width="24dp" height="24dp" viewportWidth="24" viewportHeight="24" viewBox="0 0 24 24">
	<path d="M2,4.3077C2,3.6957 2.2258,3.1087 2.6276,2.6759C3.0295,2.2431 3.5745,2 4.1429,2H19.8571C20.4255,2 20.9705,2.2431 21.3724,2.6759C21.7742,3.1087 22,3.6957 22,4.3077C22,4.9197 21.7742,5.5067 21.3724,5.9395C20.9705,6.3723 20.4255,6.6154 19.8571,6.6154H4.1429C3.5745,6.6154 3.0295,6.3723 2.6276,5.9395C2.2258,5.5067 2,4.9197 2,4.3077ZM12,11.2308C11.2422,11.2308 10.5155,11.5549 9.9797,12.132C9.4439,12.709 9.1429,13.4916 9.1429,14.3077C9.1429,15.1237 9.4439,15.9064 9.9797,16.4834C10.5155,17.0604 11.2422,17.3846 12,17.3846C12.7578,17.3846 13.4845,17.0604 14.0203,16.4834C14.5561,15.9064 14.8571,15.1237 14.8571,14.3077C14.8571,13.4916 14.5561,12.709 14.0203,12.132C13.4845,11.5549 12.7578,11.2308 12,11.2308ZM10.5714,14.3077C10.5714,13.8997 10.7219,13.5084 10.9898,13.2198C11.2578,12.9313 11.6211,12.7692 12,12.7692C12.3789,12.7692 12.7422,12.9313 13.0102,13.2198C13.2781,13.5084 13.4286,13.8997 13.4286,14.3077C13.4286,14.7157 13.2781,15.107 13.0102,15.3955C12.7422,15.6841 12.3789,15.8462 12,15.8462C11.6211,15.8462 11.2578,15.6841 10.9898,15.3955C10.7219,15.107 10.5714,14.7157 10.5714,14.3077ZM20.5714,8.1538H3.4286V12.7692C3.4286,15.2174 4.3316,17.5653 5.9391,19.2964C7.5465,21.0275 9.7267,22 12,22C14.2733,22 16.4535,21.0275 18.0609,19.2964C19.6684,17.5653 20.5714,15.2174 20.5714,12.7692V8.1538ZM7.7143,14.3077C7.7143,13.0836 8.1658,11.9097 8.9695,11.0441C9.7733,10.1786 10.8634,9.6923 12,9.6923C13.1366,9.6923 14.2267,10.1786 15.0305,11.0441C15.8342,11.9097 16.2857,13.0836 16.2857,14.3077C16.2857,15.5318 15.8342,16.7057 15.0305,17.5713C14.2267,18.4368 13.1366,18.9231 12,18.9231C10.8634,18.9231 9.7733,18.4368 8.9695,17.5713C8.1658,16.7057 7.7143,15.5318 7.7143,14.3077Z" fill="#40507A"/>
</svg>
