<svg xmlns="http://www.w3.org/2000/svg" width="100%" height="100%" viewBox="0 0 24 24">
	<path d="M15.1971,6.2964L10.1764,3.5793C9.9361,3.4599 9.6672,3.4104 9.4001,3.4363C9.1331,3.4622 8.8786,3.5624 8.6657,3.7257L3.4286,7.715V2H2V20.5714C2,20.9503 2.1505,21.3137 2.4184,21.5816C2.6863,21.8495 3.0497,22 3.4286,22H22V4.6679L15.1971,6.2964ZM20.5714,15.0071L15.1286,16.2943L10.1079,14.2343C9.8659,14.1427 9.6035,14.1189 9.349,14.1655C9.0944,14.2121 8.8575,14.3272 8.6636,14.4986L3.4286,19.0257V15.8429L9.4107,9.1286L14.4243,13.1429C14.6318,13.297 14.8771,13.3925 15.1342,13.4191C15.3914,13.4457 15.651,13.4026 15.8857,13.2943L20.5714,11.0014V15.0071ZM9.5171,4.8464L14.5386,7.5636C14.8349,7.7107 15.173,7.7511 15.4957,7.6779L20.5714,6.475V9.4129L15.2993,12.0143L10.2857,8C10.0006,7.7842 9.6447,7.6837 9.2888,7.7187C8.933,7.7536 8.6034,7.9214 8.3657,8.1886L3.4286,13.7029V9.51L9.5171,4.8464ZM3.8214,20.5714L9.585,15.5636L14.6057,17.6236C14.8675,17.7218 15.1524,17.7409 15.425,17.6786L20.5714,16.4714V20.5714H3.8214Z" fill="#40507A"/>
</svg>
