<svg xmlns="http://www.w3.org/2000/svg" xmlns:android="http://schemas.android.com/apk/res/android" width="100%" height="100%" viewBox="0 0 24 24">
	<path d="M9.1502,2.4487C9.1883,2.3191 9.2673,2.2054 9.3755,2.1245C9.4836,2.0436 9.6151,1.9999 9.7501,2H14.7498C14.8488,2.0001 14.9464,2.0237 15.0344,2.0688C15.1225,2.114 15.1986,2.1794 15.2565,2.2597C15.3143,2.34 15.3523,2.4329 15.3672,2.5307C15.3821,2.6286 15.3736,2.7285 15.3423,2.8224L13.1174,9.4995H17.8747C17.9917,9.4995 18.1064,9.5323 18.2057,9.5942C18.305,9.6561 18.385,9.7446 18.4364,9.8498C18.4879,9.9549 18.5088,10.0723 18.4967,10.1888C18.4847,10.3052 18.4402,10.4159 18.3684,10.5082L9.6189,21.7576C9.5293,21.8734 9.4018,21.954 9.2588,21.9854C9.1158,22.0169 8.9663,21.9971 8.8363,21.9295C8.7064,21.8619 8.6044,21.7509 8.5479,21.6158C8.4916,21.4806 8.4844,21.33 8.5277,21.1901L10.7788,13.8743H6.6253C6.5282,13.8744 6.4323,13.8518 6.3454,13.8083C6.2585,13.7648 6.183,13.7017 6.1247,13.6239C6.0665,13.5462 6.0272,13.4559 6.0099,13.3603C5.9927,13.2646 5.998,13.1663 6.0254,13.0731L9.1502,2.4487Z" fill="#40507A" />
</svg>