<svg xmlns="http://www.w3.org/2000/svg" xmlns:android="http://schemas.android.com/apk/res/android" width="24dp" height="24dp" viewportWidth="24" viewportHeight="24" viewBox="0 0 24 24">
	<path d="M21.6332,14.111L17.8557,17.889C17.6223,18.1216 17.3062,18.2522 16.9767,18.2522C16.6472,18.2522 16.331,18.1216 16.0976,17.889L12.9599,14.7477L12.5735,15.1347C13.0456,16.1747 13.2722,17.3093 13.2356,18.4508C13.1989,19.5923 12.9001,20.7101 12.3623,21.7177C12.1865,22.0497 11.7219,22.0925 11.4557,21.8269L7.2558,17.6271L6.5605,18.3224C6.5879,18.4244 6.6234,18.5177 6.6234,18.627C6.6234,18.8743 6.55,19.116 6.4127,19.3216C6.2753,19.5272 6.08,19.6874 5.8516,19.7821C5.6232,19.8767 5.3718,19.9014 5.1293,19.8532C4.8868,19.805 4.664,19.6859 4.4892,19.5111C4.3143,19.3362 4.1953,19.1135 4.147,18.871C4.0988,18.6284 4.1235,18.3771 4.2181,18.1486C4.3127,17.9202 4.473,17.7249 4.6786,17.5876C4.8842,17.4502 5.1259,17.3768 5.3731,17.3768C5.4824,17.3768 5.5758,17.4123 5.6778,17.4397L6.3731,16.7444L2.1731,12.5447C1.9075,12.2785 1.9503,11.8176 2.2824,11.6382C3.29,11.1003 4.4078,10.8016 5.5493,10.7649C6.6909,10.7283 7.8255,10.9548 8.8655,11.427L9.2483,11.0442L6.1112,7.9029C5.8786,7.6687 5.7481,7.3521 5.7481,7.022C5.7481,6.692 5.8786,6.3754 6.1112,6.1412L9.8893,2.3632C10.0045,2.2476 10.1416,2.156 10.2925,2.0936C10.4433,2.0313 10.6051,1.9994 10.7684,2C11.0991,1.9995 11.4165,2.1302 11.6511,2.3632L14.7888,5.5002L16.6562,3.6293C16.9023,3.3833 17.2361,3.2451 17.5841,3.2451C17.9321,3.2451 18.2658,3.3833 18.512,3.6293L20.3678,5.485C20.6135,5.7313 20.7515,6.0649 20.7515,6.4128C20.7515,6.7607 20.6135,7.0944 20.3678,7.3407L18.5004,9.2117L21.6375,12.353C21.7528,12.4686 21.8442,12.6058 21.9064,12.7568C21.9686,12.9078 22.0004,13.0696 22,13.2329C21.9996,13.3962 21.967,13.5578 21.9041,13.7085C21.8411,13.8592 21.7491,13.996 21.6332,14.111H21.6332ZM10.5767,9.7122L13.4605,6.8285L10.7684,4.1371L7.8852,7.0202L10.5767,9.7122ZM19.8635,13.232L17.172,10.54L14.2882,13.4237L16.9804,16.1151L19.8635,13.232Z" fill="#40507A"/>
</svg>
